<?xml version="1.0" encoding="utf-8"?>
<!-- Generator: Adobe Illustrator 26.5.2, SVG Export Plug-In . SVG Version: 6.00 Build 0)  -->
<svg version="1.1" id="Layer_1" xmlns="http://www.w3.org/2000/svg" xmlns:xlink="http://www.w3.org/1999/xlink" x="0px" y="0px"
	 viewBox="0 0 500 500" style="enable-background:new 0 0 500 500;" xml:space="preserve">
<style type="text/css">
	.st0{display:none;}
	.st1{stroke:#000000;stroke-miterlimit:10;}
	.st2{fill:none;stroke:#FFFFFF;stroke-width:3;stroke-miterlimit:10;}
	.st3{fill:#FFFFFF;stroke:#FFFFFF;stroke-width:3;stroke-miterlimit:10;}
	.st4{fill:#FFFFFF;stroke:#FFFFFF;stroke-miterlimit:10;}
	.st5{fill:none;stroke:#FFFFFF;stroke-width:0.75;stroke-miterlimit:10;}
	.st6{fill:none;stroke:#FFFFFF;stroke-miterlimit:10;}
	.st7{fill:#FFFFFF;stroke:#000000;stroke-miterlimit:10;}
</style>
<g id="qEF4VJ_00000054250122353490043640000013096855142592442240_" class="st0">
	
		<image style="display:inline;overflow:visible;" width="2048" height="1534" id="qEF4VJ_00000118357706763004091870000016778216775355110539_" xlink:href="78E59801AB18362D.jpg"  transform="matrix(0.24 0 0 0.24 8.48 45.9757)">
	</image>
</g>
<rect y="-1.8" class="st1" width="512.4" height="503.8"/>
<path class="st2" d="M303,298.8l9.7,50.6c0.6,3.4,0.5,6.9-0.3,10.2l-0.3,1.2l-1,2.6c-0.5,1.2-1.1,2.4-1.9,3.5l-0.4,0.5
	c-0.3,0.4-0.6,0.9-0.8,1.4l-0.3,0.7c-0.4,0.9-1,1.6-1.7,2.3l-0.7,0.6l-2.8,2.1l-2.6,1.9l-1.5,1.8l-0.5,2l-1.7,3.5l-2.8,4.3l-1.6,2.3
	l-2.8,3.2l-4.5,3.1l-5.3,3.1l-10.9,4L255,403l-10.4-5.2l-6.4-4c-2.4-1.6-8.6-9.5-10.2-11.9l-1.5-4.9"/>
<path class="st2" d="M294.2,377.9l3.6-1.7l-6.6,2.3c-0.5,0.2-1.1,0.3-1.7,0.3h-2H286c-1,0-1.9-0.1-2.8-0.4l-3.6-0.9l-4.4-1l-1.2-0.6
	c-0.4-0.2-0.9-0.4-1.4-0.6l-2.1-0.7l-2.4-1.8l-3.2-2.2l-2.3-2.5l-1.5-2.8v-1.8v-2.9l0.7-1.8l1.1-2l1.1-1.4l1.7-2l3.6-2l1.6-1.1l8-5
	l3.6-2.8l0.7-2l0.4-3.4v-3.2l0.1-2.6V329"/>
<path class="st2" d="M277.4,343.3l-2.6,4.7C274.8,348,278.8,344.9,277.4,343.3z"/>
<path class="st2" d="M276.9,339.7l0.4,3.5L276.9,339.7z"/>
<path class="st2" d="M218.6,298.8l-8.3,40.1l-0.4,4.4l-0.2,4.7l-0.9,3.2l0.8,6l1.2,4l2.1,4.7l1.9,2.2l3.3,4l2.1,2.1l3.5,1.7l2.3,1
	l2.4,0.8h3h4.2l4.3-0.6l3.3-0.7l6.2-3.1c0,0,1.3-0.4,3.3-1.8s2.5-1.5,2.5-1.5l2.1-2.4l1.7-2l0.9-2.4l-1.3-1.8l-1.4-2.2l-1.5-2.2
	l-2.7-2.2l-3.4-3l-5.4-3.8l-1.8-1.6l-0.9-1.3v-1.8l0.9-1.8l1.8-1.8h3.4l2.1,0.7l2.1,1l2.3,0.6h3.4h3.4l3.1-0.6l3.7-1.8l2.5-0.9h4.6
	l2.1,1.9"/>
<polyline class="st2" points="235.4,332 237.6,340.8 239.5,346.2 241.8,348.4 245.9,350 247.6,350.3 "/>
<path class="st2" d="M207.7,315c-1.8,2.4-4.1,0.8-6.8-1.3c-2.7-2-5-3.7-3.2-6.2s3.4,0,6.2,2.1C206.6,311.7,209.5,312.6,207.7,315z"
	/>
<path class="st3" d="M365.8,222.2"/>
<path class="st2" d="M337.8,185.9"/>
<path class="st2" d="M333.9,185.9c18.2,7.1,30.9,21.9,31.6,39.3c0.4,9.3,0,0,0,7.7"/>
<path class="st2" d="M184.7,185.9c-13.6,5.9-23,18-23.5,32.4c-0.3,7.7,0,0,0,6.4"/>
<path class="st2" d="M335.9,172.5c15.4-5.1,28.4-6.8,37.3-7.4c18.6-1.2,23.1,2.2,24.5,3.4c7.4,6.3,6.5,18,6.1,23.8
	c-0.5,6.3-2.2,10.9-4.3,16.4c-2.5,6.5-4.4,9.2-9.8,20.4c-2.4,5-4.3,9.2-5.5,11.9"/>
<path class="st2" d="M351.6,176.1c9.6-3.5,17.7-4.6,23.2-5c11.6-0.8,14.4,1.5,15.2,2.3c4.6,4.2,4.1,12.1,3.8,16
	c-0.3,4.2-1.4,7.4-2.7,11.1c-1.5,4.4-2.7,6.2-6.1,13.7c-1.5,3.4-2.7,6.2-3.4,8"/>
<path class="st2" d="M192.5,169.6c-15.7-5.5-28.9-7.3-38-7.9c-18.9-1.3-23.5,2.4-24.9,3.7c-7.6,6.8-6.7,19.4-6.2,25.6
	c0.5,6.8,2.3,11.8,4.4,17.7c2.5,7,4.5,9.9,10,21.9c2.5,5.4,4.4,9.9,5.6,12.8"/>
<path class="st2" d="M176.5,173.4c-9.7-3.7-18-4.9-23.7-5.3c-11.8-0.8-14.6,1.6-15.5,2.5c-4.7,4.6-4.2,13.1-3.9,17.2
	c0.3,4.6,1.4,7.9,2.7,11.9c1.6,4.7,2.8,6.7,6.2,14.8c1.5,3.7,2.7,6.7,3.5,8.6"/>
<circle class="st4" cx="280.5" cy="354.1" r="0.9"/>
<circle class="st4" cx="281.4" cy="361.6" r="0.9"/>
<circle class="st4" cx="272.9" cy="364.1" r="0.9"/>
<circle class="st4" cx="273.8" cy="358" r="0.9"/>
<circle class="st4" cx="292.7" cy="345.2" r="0.9"/>
<circle class="st4" cx="285.1" cy="351.2" r="0.9"/>
<circle class="st4" cx="286.8" cy="371.1" r="0.9"/>
<circle class="st4" cx="277.7" cy="370.2" r="0.9"/>
<circle class="st4" cx="278.1" cy="365.4" r="0.9"/>
<circle class="st4" cx="297.5" cy="354.8" r="0.9"/>
<circle class="st4" cx="288.4" cy="361.6" r="0.9"/>
<circle class="st4" cx="300.2" cy="360.2" r="0.9"/>
<circle class="st4" cx="297.4" cy="367.6" r="0.9"/>
<circle class="st4" cx="292.7" cy="365.9" r="0.9"/>
<circle class="st4" cx="304.6" cy="353.4" r="0.9"/>
<circle class="st4" cx="291.9" cy="357.5" r="0.9"/>
<circle class="st4" cx="289" cy="354.6" r="0.9"/>
<circle class="st4" cx="297.8" cy="348" r="0.9"/>
<path class="st4" d="M292,373.4c-0.5-0.2-1,0.1-1.2,0.5c-0.2,0.5,0.1,1,0.5,1.2c0.5,0.2,1-0.1,1.2-0.5
	C292.7,374.1,292.4,373.5,292,373.4z"/>
<circle class="st4" cx="302.9" cy="344.2" r="0.9"/>
<circle class="st4" cx="247.9" cy="359.1" r="0.9"/>
<circle class="st4" cx="236.2" cy="368.4" r="0.9"/>
<circle class="st4" cx="245.2" cy="369.3" r="0.9"/>
<circle class="st4" cx="243.9" cy="354.3" r="0.9"/>
<circle class="st4" cx="238.7" cy="357.1" r="0.9"/>
<circle class="st4" cx="233.5" cy="361.3" r="0.9"/>
<circle class="st4" cx="218.6" cy="359.1" r="0.9"/>
<circle class="st4" cx="226.3" cy="366.7" r="0.9"/>
<circle class="st4" cx="231.2" cy="351.8" r="0.9"/>
<circle class="st4" cx="221.8" cy="350.8" r="0.9"/>
<circle class="st4" cx="234.4" cy="346.5" r="0.9"/>
<circle class="st4" cx="225.4" cy="344.2" r="0.9"/>
<circle class="st4" cx="250.5" cy="364.1" r="0.9"/>
<circle class="st4" cx="244.3" cy="361.8" r="0.9"/>
<circle class="st4" cx="230.3" cy="371.8" r="0.9"/>
<circle class="st4" cx="226.3" cy="354.1" r="0.9"/>
<circle class="st4" cx="219.9" cy="339.7" r="0.9"/>
<path class="st5" d="M286.2,363.9c3.6,3.9,18.3,19,32,15.2c0.9-0.2,1.7-0.6,2.6-1"/>
<path class="st5" d="M286.3,357.9c15.5,7.9,37.6,18,41.3,12.9c0.3-0.4,0.5-1,0.5-1.6"/>
<path class="st5" d="M240.5,362.4c-4.3,2.7-21.7,13.1-38,10.5c-1-0.2-2.1-0.4-3.1-0.7"/>
<path class="st5" d="M234.4,352.3c-0.7,5.6-43.8,22.9-41,12.9c0.1-0.5,0,0.7,0,0"/>
<path class="st5" d="M294,352.3c4.1-1.5,11-2.8,19.7-2.9c3.2-0.1,16.4,3.3,20.5,5.5"/>
<path class="st5" d="M235,349.1c-3-4.5-41.7-3.5-42.7,5.5"/>
<path class="st5" d="M234,346.6c-0.9-5.4-36.6-20.4-41.2-12.6"/>
<path class="st5" d="M286,344.3c1.9-5.2,40.4-14.2,43.7-5.7"/>
<path class="st2" d="M181.2,306c-1.8,2.4-4.1,0.8-6.8-1.3s-5-3.7-3.2-6.2c1.8-2.4,3.4,0,6.2,2.1S183,303.5,181.2,306z"/>
<path class="st2" d="M164.5,332.2c-2.9,0.9-6.9-4-8.9-10.6c-2-6.6-1.4-12.6,1.6-13.3c2.6-0.6,6.3,6.9,5.6,11.4
	C161.6,326.5,167.4,331.3,164.5,332.2z"/>
<path class="st2" d="M366.5,310.5c2.9,0.9,4.8,7.2,1.3,9.7c-3.8,2.8-3.5,7.4-6.4,6.5s0.2-4.3,1.6-8.8
	C364.4,313.5,363.6,309.6,366.5,310.5z"/>
<path class="st2" d="M352.6,270.7c2.7-1.4,8.4,1.8,7.8,6c-0.7,4.7,2.7,7.8,0,9.2c-2.7,1.4-2.9-3.2-5-7.4
	C353.3,274.3,349.9,272.1,352.6,270.7z"/>
<path class="st2" d="M350.3,340.3c1.9,2.3-0.2,4.1-2.8,6.3c-2.6,2.2-4.8,4-6.7,1.6c-1.9-2.3,0.8-3.3,3.5-5.5
	C346.8,340.5,348.3,337.9,350.3,340.3z"/>
<path class="st2" d="M319.2,321.1c2.1,2.2,0.9,3.3-0.5,4.7c-1.4,1.4-2.6,2.5-4.7,0.3c-2.1-2.2-0.2-2.6,1.2-3.9
	C316.7,320.7,317.1,318.9,319.2,321.1z"/>
<path class="st2" d="M312.6,290.4c-1.5,3.4,2,6.5,0.4,7.5s-5.9-0.3-6.3-4c-0.5-4.2-2-6.5-0.4-7.5
	C307.9,285.5,313.6,288.1,312.6,290.4z"/>
<path class="st2" d="M216.5,294c-3.4,1.5-2.9,6.2-4.8,5.8c-1.9-0.4-4.1-4.2-2-7.2c2.5-3.5,2.9-6.2,4.8-5.8
	C216.4,287.2,218.8,293,216.5,294z"/>
<path class="st2" d="M223.3,199.5c-3.4,1.5-2.9,6.2-4.8,5.8c-1.9-0.4-4.1-4.2-2-7.2c2.5-3.5,2.9-6.2,4.8-5.8
	C223.1,192.7,225.6,198.5,223.3,199.5z"/>
<path class="st2" d="M284.3,201c1-3.5-3-6.1-1.5-7.3c1.5-1.2,5.9-0.5,6.9,3c1.1,4.1,3,6.1,1.5,7.3
	C289.7,205.2,283.6,203.5,284.3,201z"/>
<path class="st2" d="M195.9,215.6c1.7-7.2,8.2-11.8,3.1-13.1s-6.4,6.6-12.4,10.9c-7.7,5.5,1,14.1,6.1,15.3S194.1,222.8,195.9,215.6z
	"/>
<path class="st2" d="M323.4,214.8c5,5.4,5.3,13.4,9.1,9.8c3.9-3.6-2-9-2.2-16.3c-0.2-9.5-12.3-6.9-16.1-3.4S318.4,209.3,323.4,214.8
	z"/>
<path class="st2" d="M185,339.1c-1.8,2.4-4.1,0.8-6.8-1.3c-2.7-2-5-3.7-3.2-6.2c1.8-2.4,4.9-2.1,7.6-0.1
	C185.4,333.7,186.8,336.7,185,339.1z"/>
<path class="st2" d="M345.9,313.2c1.7,2.5-0.5,4.1-3.4,6c-2.8,2-5.1,3.5-6.8,1s-0.5-5.3,2.4-7.2
	C340.9,311.1,344.2,310.7,345.9,313.2z"/>
<path class="st2" d="M246.6,319.8c0,1.7-2.7,3.1-3.7,3.1c-1,0-1.9-1.4-1.9-3.1c0-1.7,0.8-3.1,1.9-3.1
	C244,316.7,246.6,318.1,246.6,319.8z"/>
<path class="st2" d="M278.7,310c0,1.7-2.7,3.1-3.7,3.1c-1,0-1.9-1.4-1.9-3.1c0-1.7,0.8-3.1,1.9-3.1C276,306.9,278.7,308.3,278.7,310
	z"/>
<path class="st2" d="M249.4,270.3c0,1.7-2.7,3.1-3.7,3.1s-1.9-1.4-1.9-3.1s0.8-3.1,1.9-3.1S249.4,268.6,249.4,270.3z"/>
<path class="st2" d="M286.9,261c0,1.7-2.7,3.1-3.7,3.1c-1,0-1.9-1.4-1.9-3.1s0.8-3.1,1.9-3.1C284.3,257.9,286.9,259.3,286.9,261z"/>
<path class="st2" d="M270.2,217.5c0,1.7-2.7,3.1-3.7,3.1c-1,0-1.9-1.4-1.9-3.1s0.8-3.1,1.9-3.1C267.5,214.4,270.2,215.8,270.2,217.5
	z"/>
<path class="st2" d="M272.9,286.8c0,1.7-2.7,3.1-3.7,3.1s-1.9-1.4-1.9-3.1c0-1.7,0.8-3.1,1.9-3.1S272.9,285.1,272.9,286.8z"/>
<path class="st2" d="M342.9,289.9c0,1.7-2.7,3.1-3.7,3.1s-1.9-1.4-1.9-3.1c0-1.7,0.8-3.1,1.9-3.1S342.9,288.2,342.9,289.9z"/>
<path class="st2" d="M227,240.4c-2.6,7.1,1.9,16.9-4.8,17.5c-2.6,0.2-1.3-7-4.8-13.7c-2.6-5.1-1.6-14.7,1-14.7
	C221.1,229.4,229.5,233.7,227,240.4z"/>
<path class="st2" d="M289.5,244.4c0-7.6-7.6-15.2-1.6-18c2.4-1.1,3.6,6.1,9.2,11.2c4.2,3.9,6.6,13.3,4.1,14.2
	S289.5,251.5,289.5,244.4z"/>
<path class="st2" d="M332.1,249.1c-4.6-6-15.2-7.6-12.1-13.5c1.2-2.3,6.6,2.7,14.1,3.4c5.7,0.6,13.3,6.6,11.8,8.8
	C344.5,250.1,336.4,254.8,332.1,249.1z"/>
<path class="st2" d="M192.6,248.3c-7.6-0.3-15.5,7-18.1,0.8c-1-2.4,6.2-3.4,11.6-8.7c4.1-4,13.5-6.1,14.3-3.5
	C201.2,239.3,199.7,248.6,192.6,248.3z"/>
<path class="st2" d="M245,213.1c2.7-1.4,8.4,1.8,7.8,6c-0.7,4.7,2.7,7.8,0,9.2c-2.7,1.4-2.9-3.2-5-7.4S242.3,214.5,245,213.1z"/>
<path class="st2" d="M154.4,286c-4.5,2.7,2.4,9.5,5.5,9.5c3,0,6.6-3.4,6.6-8.7s-3.6-10.3-6.6-10.3
	C156.8,276.5,161.7,281.7,154.4,286z"/>
<path class="st2" d="M154.9,253.7c0,5.7,1.8,10.4,3.9,10.4c2.2,0,1-5.5,3.9-10.4c3.1-5.1-1.9-7.9-4-7.9
	C156.5,245.9,154.9,248,154.9,253.7z"/>
<path class="st2" d="M218,173.7c-2-5.8-3.2-2.7-9.5-2.7s-12.2,0.8-11.4,3.3c3.6,12.3,5.1,3.3,11.4,3.3S218.6,175.4,218,173.7z"/>
<path class="st2" d="M284.2,178.6c0,3.2-2.1,3.6-7.5,3.6c-5.4,0-12.6-6.2-12.6-9.4s4.9,0,10.3,0
	C279.8,172.7,284.2,175.4,284.2,178.6z"/>
<path class="st2" d="M320.1,175.4c0,2.1-4.1,2.8-10,2.8s-7.8-4.7-7.8-6.9c0-2.1,5-2,10.6-0.4C319.1,172.8,320.1,173.3,320.1,175.4z"
	/>
<path class="st2" d="M241.5,181.7c0,4.8-6.8,5.3-11,5.3c-4.2,0-6.3-2.5-6.3-4.8c0-5.7,7.3-8.2,9.7-4.7
	C236.7,181.7,241.5,179.4,241.5,181.7z"/>
<path class="st2" d="M310.1,189c0,2.9-4.4,3.3-9.9,3.3s-6.3-0.6-8.3-5.3c-1.2-2.7,2.8-2.7,8.2-2.7S310.1,186.1,310.1,189z"/>
<path class="st2" d="M267.4,198.8c0,3.6-4.6,2.9-10.4,2.9c-5.7,0-10.4,0.7-10.4-2.9s5.1-4.5,10.8-4.5
	C263.2,194.3,267.4,195.2,267.4,198.8z"/>
<path class="st2" d="M366.8,253.8c0,5.3,0.2,8.9-3.5,8.9s-5.5-1.6-5.5-7s-2.5-10.1,1.2-10.1C362.7,245.6,366.8,248.5,366.8,253.8z"
	/>
<path class="st2" d="M249.4,289.7c0-2-3.6-3.7-8-3.7s-8.6,8.1-8.6,10.1c0,2,4.2-2.8,8.6-2.8S249.4,291.7,249.4,289.7z"/>
<circle class="st2" cx="255.2" cy="249.1" r="5.8"/>
<circle class="st2" cx="230.5" cy="216.7" r="3.9"/>
<path class="st2" d="M355.2,226.8c0,3.4,2.6,7.3-0.8,7.3s-8.3-2.8-8.3-6.2c0-3.4-2.4-4,1-4C350.5,223.9,355.2,223.4,355.2,226.8z"/>
<path class="st3" d="M324.7,264.5c1.2,3-1.1,8.7-6.8,10.9c-5.7,2.2-12.6,0.1-13.8-2.9c-1.2-3,2.5-7.2,8.2-9.4
	C318,260.8,323.6,261.5,324.7,264.5z"/>
<path class="st2" d="M295.3,275.6c0.8-2.9,2.8-7.8,7.5-11.5c4.7-3.7,9.8-4.3,14.7-4.9c5.5-0.7,9.5,0,10.7,0.2
	c3.1,0.6,5.7,1.5,7.5,2.3"/>
<path class="st3" d="M198.4,264.1c-1.1,3,1.1,8.7,6.5,10.9c5.4,2.2,12.1,0.1,13.2-2.9c1.1-3-2.4-7.2-7.8-9.4
	C204.8,260.5,199.5,261.1,198.4,264.1z"/>
<path class="st2" d="M226.6,275.3c-0.8-2.9-2.7-7.8-7.2-11.5c-4.5-3.7-9.4-4.3-14.1-4.9c-5.2-0.7-9.1,0-10.2,0.2
	c-3,0.6-5.4,1.5-7.2,2.3"/>
<ellipse class="st6" cx="261.2" cy="255" rx="177.7" ry="165.8"/>
<ellipse class="st7" cx="331.9" cy="307.4" rx="2.2" ry="5.8"/>
</svg>
