<?xml version="1.0" encoding="utf-8"?>
<!-- Generator: Adobe Illustrator 26.5.2, SVG Export Plug-In . SVG Version: 6.00 Build 0)  -->
<svg version="1.1" id="Layer_1" xmlns="http://www.w3.org/2000/svg" xmlns:xlink="http://www.w3.org/1999/xlink" x="0px" y="0px"
	 viewBox="0 0 500 500" style="enable-background:new 0 0 500 500;" xml:space="preserve">
<style type="text/css">
	.st0{display:none;}
	.st1{stroke:#000000;stroke-miterlimit:10;}
	.st2{fill:none;stroke:#FFFFFF;stroke-width:3;stroke-miterlimit:10;}
	.st3{fill:#FFFFFF;stroke:#FFFFFF;stroke-width:3;stroke-miterlimit:10;}
	.st4{fill:#FFFFFF;stroke:#FFFFFF;stroke-miterlimit:10;}
	.st5{fill:none;stroke:#FFFFFF;stroke-width:0.75;stroke-miterlimit:10;}
</style>
<g id="qEF4VJ_00000054250122353490043640000013096855142592442240_" class="st0">
	
		<image style="display:inline;overflow:visible;" width="2048" height="1534" id="qEF4VJ_00000118357706763004091870000016778216775355110539_" xlink:href="737F460A94052E1.jpg"  transform="matrix(0.24 0 0 0.24 8.48 45.9757)">
	</image>
</g>
<rect y="0" class="st1" width="500" height="500"/>
<path class="st2" d="M295.5,247.1l9.7,50.6c0.6,3.4,0.5,6.9-0.3,10.2l-0.3,1.2l-1,2.6c-0.5,1.2-1.1,2.4-1.9,3.5l-0.4,0.5
	c-0.3,0.4-0.6,0.9-0.8,1.4l-0.3,0.7c-0.4,0.9-1,1.6-1.7,2.3l-0.7,0.6l-2.8,2.1l-2.6,1.9l-1.5,1.8l-0.5,2l-1.7,3.5l-2.8,4.3l-1.6,2.3
	l-2.8,3.2l-4.5,3.1l-5.3,3.1l-10.9,4l-13.4-0.5l-10.4-5.2l-6.4-4c-2.4-1.6-8.6-9.5-10.2-11.9l-1.5-4.9"/>
<path class="st2" d="M286.7,326.3l3.6-1.7l-6.6,2.3c-0.5,0.2-1.1,0.3-1.7,0.3h-2h-1.5c-1,0-1.9-0.1-2.8-0.4l-3.6-0.9l-4.4-1
	l-1.2-0.6c-0.4-0.2-0.9-0.4-1.4-0.6l-2.1-0.7l-2.4-1.8l-3.2-2.2l-2.3-2.5l-1.5-2.8v-1.8v-2.9l0.7-1.8l1.1-2l1.1-1.4l1.7-2l3.6-2
	l1.6-1.1l8-5l3.6-2.8l0.7-2l0.4-3.4v-3.2l0.1-2.6v-2.5"/>
<path class="st2" d="M269.9,291.6l-2.6,4.7C267.4,296.4,271.4,293.3,269.9,291.6z"/>
<path class="st2" d="M269.5,288.1l0.4,3.5L269.5,288.1z"/>
<path class="st2" d="M211.1,247.1l-8.3,40.1l-0.4,4.4l-0.2,4.7l-0.9,3.2l0.8,6l1.2,4l2.1,4.7l1.9,2.2l3.3,4l2.1,2.1l3.5,1.7l2.3,1
	l2.4,0.8h3h4.2l4.3-0.6l3.3-0.7l6.2-3.1c0,0,1.3-0.4,3.3-1.8c2-1.3,2.5-1.5,2.5-1.5l2.1-2.4l1.7-2l0.9-2.4l-1.3-1.8l-1.4-2.2
	l-1.5-2.2l-2.7-2.2l-3.4-3l-5.4-3.8l-1.8-1.6l-0.9-1.3v-1.8l0.9-1.8l1.8-1.8h3.4l2.1,0.7l2.1,1l2.3,0.6h3.4h3.4l3.1-0.6l3.7-1.8
	l2.5-0.9h4.6l2.1,1.9"/>
<polyline class="st2" points="227.9,280.4 230.1,289.2 232.1,294.6 234.4,296.8 238.5,298.4 240.1,298.7 "/>
<path class="st2" d="M200.2,263.4c-1.8,2.4-4.1,0.8-6.8-1.3c-2.7-2-5-3.7-3.2-6.2c1.8-2.4,3.4,0,6.2,2.1
	C199.2,260.1,202,261,200.2,263.4z"/>
<path class="st3" d="M358.4,170.6"/>
<path class="st2" d="M330.3,134.3"/>
<path class="st2" d="M326.4,134.3c18.2,7.1,30.9,21.9,31.6,39.3c0.4,9.3,0,0,0,7.7"/>
<path class="st2" d="M177.2,134.3c-13.6,5.9-23,18-23.5,32.4c-0.3,7.7,0,0,0,6.4"/>
<path class="st2" d="M328.5,120.9c15.4-5.1,28.4-6.8,37.3-7.4c18.6-1.2,23.1,2.2,24.5,3.4c7.4,6.3,6.5,18,6.1,23.8
	c-0.5,6.3-2.2,10.9-4.3,16.4c-2.5,6.5-4.4,9.2-9.8,20.4c-2.4,5-4.3,9.2-5.5,11.9"/>
<path class="st2" d="M344.1,124.4c9.6-3.5,17.7-4.6,23.2-5c11.6-0.8,14.4,1.5,15.2,2.3c4.6,4.2,4.1,12.1,3.8,16
	c-0.3,4.2-1.4,7.4-2.7,11.1c-1.5,4.4-2.7,6.2-6.1,13.7c-1.5,3.4-2.7,6.2-3.4,8"/>
<path class="st2" d="M185.1,118c-15.7-5.5-28.9-7.3-38-7.9c-18.9-1.3-23.5,2.4-24.9,3.7c-7.6,6.8-6.7,19.4-6.2,25.6
	c0.5,6.8,2.3,11.8,4.4,17.7c2.5,7,4.5,9.9,10,21.9c2.5,5.4,4.4,9.9,5.6,12.8"/>
<path class="st2" d="M169.1,121.8c-9.7-3.7-18-4.9-23.7-5.3c-11.8-0.8-14.6,1.6-15.5,2.5c-4.7,4.6-4.2,13.1-3.9,17.2
	c0.3,4.6,1.4,7.9,2.7,11.9c1.6,4.7,2.8,6.7,6.2,14.8c1.5,3.7,2.7,6.7,3.5,8.6"/>
<circle class="st4" cx="273.1" cy="302.5" r="0.9"/>
<circle class="st4" cx="274" cy="309.9" r="0.9"/>
<circle class="st4" cx="265.4" cy="312.5" r="0.9"/>
<circle class="st4" cx="266.3" cy="306.4" r="0.9"/>
<circle class="st4" cx="285.2" cy="293.6" r="0.9"/>
<circle class="st4" cx="277.6" cy="299.5" r="0.9"/>
<circle class="st4" cx="279.4" cy="319.4" r="0.9"/>
<circle class="st4" cx="270.3" cy="318.5" r="0.9"/>
<circle class="st4" cx="270.6" cy="313.8" r="0.9"/>
<circle class="st4" cx="290.1" cy="303.2" r="0.9"/>
<circle class="st4" cx="281" cy="309.9" r="0.9"/>
<circle class="st4" cx="292.7" cy="308.6" r="0.9"/>
<circle class="st4" cx="290" cy="316" r="0.9"/>
<circle class="st4" cx="285.2" cy="314.2" r="0.9"/>
<circle class="st4" cx="297.1" cy="301.7" r="0.9"/>
<circle class="st4" cx="284.5" cy="305.9" r="0.9"/>
<circle class="st4" cx="281.6" cy="303" r="0.9"/>
<circle class="st4" cx="290.4" cy="296.4" r="0.9"/>
<path class="st4" d="M284.5,321.7c-0.5-0.2-1,0.1-1.2,0.5c-0.2,0.5,0.1,1,0.5,1.2c0.5,0.2,1-0.1,1.2-0.5
	C285.2,322.4,285,321.9,284.5,321.7z"/>
<circle class="st4" cx="295.5" cy="292.5" r="0.9"/>
<circle class="st4" cx="240.5" cy="307.5" r="0.9"/>
<circle class="st4" cx="228.8" cy="316.7" r="0.9"/>
<circle class="st4" cx="237.7" cy="317.6" r="0.9"/>
<circle class="st4" cx="236.4" cy="302.7" r="0.9"/>
<circle class="st4" cx="231.3" cy="305.5" r="0.9"/>
<circle class="st4" cx="226.1" cy="309.7" r="0.9"/>
<circle class="st4" cx="211.2" cy="307.5" r="0.9"/>
<circle class="st4" cx="218.8" cy="315.1" r="0.9"/>
<circle class="st4" cx="223.8" cy="300.2" r="0.9"/>
<circle class="st4" cx="214.3" cy="299.1" r="0.9"/>
<circle class="st4" cx="227" cy="294.9" r="0.9"/>
<circle class="st4" cx="217.9" cy="292.5" r="0.9"/>
<circle class="st4" cx="243.1" cy="312.5" r="0.9"/>
<circle class="st4" cx="236.8" cy="310.2" r="0.9"/>
<circle class="st4" cx="222.9" cy="320.2" r="0.9"/>
<circle class="st4" cx="218.8" cy="302.5" r="0.9"/>
<circle class="st4" cx="212.5" cy="288.1" r="0.9"/>
<path class="st5" d="M278.8,312.3c3.6,3.9,18.3,19,32,15.2c0.9-0.2,1.7-0.6,2.6-1"/>
<path class="st5" d="M278.9,306.2c15.5,7.9,37.6,18,41.3,12.9c0.3-0.4,0.5-1,0.5-1.6"/>
<path class="st5" d="M233,310.8c-4.3,2.7-21.7,13.1-38,10.5c-1-0.2-2.1-0.4-3.1-0.7"/>
<path class="st5" d="M227,300.6c-0.7,5.6-43.8,22.9-41,12.9c0.1-0.5,0,0.7,0,0"/>
<path class="st5" d="M286.5,300.7c4.1-1.5,11-2.8,19.7-2.9c3.2-0.1,16.4,3.3,20.5,5.5"/>
<path class="st5" d="M227.5,297.5c-3-4.5-41.7-3.5-42.7,5.5"/>
<path class="st5" d="M226.6,295c-0.9-5.4-36.6-20.4-41.2-12.6"/>
<path class="st5" d="M278.6,292.7c1.9-5.2,40.4-14.2,43.7-5.7"/>
<path class="st2" d="M173.7,254.3c-1.8,2.4-4.1,0.8-6.8-1.3c-2.7-2-5-3.7-3.2-6.2s3.4,0,6.2,2.1
	C172.7,251.1,175.6,251.9,173.7,254.3z"/>
<path class="st2" d="M157,280.6c-2.9,0.9-6.9-4-8.9-10.6c-2-6.6-1.4-12.6,1.6-13.3c2.6-0.6,6.3,6.9,5.6,11.4
	C154.2,274.9,159.9,279.7,157,280.6z"/>
<path class="st2" d="M359,258.9c2.9,0.9,4.8,7.2,1.3,9.7c-3.8,2.8-3.5,7.4-6.4,6.5s0.2-4.3,1.6-8.8C357,261.9,356.1,258,359,258.9z"
	/>
<path class="st2" d="M345.2,219c2.7-1.4,8.4,1.8,7.8,6c-0.7,4.7,2.7,7.8,0,9.2c-2.7,1.4-2.9-3.2-5-7.4
	C345.8,222.6,342.5,220.4,345.2,219z"/>
<path class="st2" d="M342.8,288.6c1.9,2.3-0.2,4.1-2.8,6.3s-4.8,4-6.7,1.6c-1.9-2.3,0.8-3.3,3.5-5.5
	C339.4,288.9,340.9,286.3,342.8,288.6z"/>
<path class="st2" d="M311.8,269.4c2.1,2.2,0.9,3.3-0.5,4.7c-1.4,1.4-2.6,2.5-4.7,0.3c-2.1-2.2-0.2-2.6,1.2-3.9
	C309.2,269.1,309.7,267.2,311.8,269.4z"/>
<path class="st2" d="M305.2,238.8c-1.5,3.4,2,6.5,0.4,7.5c-1.6,1-5.9-0.3-6.3-4c-0.5-4.2-2-6.5-0.4-7.5
	C300.5,233.9,306.2,236.5,305.2,238.8z"/>
<path class="st2" d="M209.1,242.4c-3.4,1.5-2.9,6.2-4.8,5.8c-1.9-0.4-4.1-4.2-2-7.2c2.5-3.5,2.9-6.2,4.8-5.8
	C208.9,235.6,211.4,241.4,209.1,242.4z"/>
<path class="st2" d="M215.8,147.9c-3.4,1.5-2.9,6.2-4.8,5.8c-1.9-0.4-4.1-4.2-2-7.2c2.5-3.5,2.9-6.2,4.8-5.8
	C215.7,141.1,218.1,146.9,215.8,147.9z"/>
<path class="st2" d="M276.9,149.4c1-3.5-3-6.1-1.5-7.3c1.5-1.2,5.9-0.5,6.9,3c1.1,4.1,3,6.1,1.5,7.3
	C282.2,153.6,276.2,151.9,276.9,149.4z"/>
<path class="st2" d="M188.4,164c1.7-7.2,8.2-11.8,3.1-13.1c-5.1-1.2-6.4,6.6-12.4,10.9c-7.7,5.5,1,14.1,6.1,15.3
	S186.7,171.2,188.4,164z"/>
<path class="st2" d="M316,163.1c5,5.4,5.3,13.4,9.1,9.8c3.9-3.6-2-9-2.2-16.3c-0.2-9.5-12.3-6.9-16.1-3.4
	C303,156.9,311,157.7,316,163.1z"/>
<path class="st2" d="M177.6,287.5c-1.8,2.4-4.1,0.8-6.8-1.3c-2.7-2-5-3.7-3.2-6.2c1.8-2.4,4.9-2.1,7.6-0.1
	C178,282,179.4,285,177.6,287.5z"/>
<path class="st2" d="M338.4,261.6c1.7,2.5-0.5,4.1-3.4,6s-5.1,3.5-6.8,1s-0.5-5.3,2.4-7.2C333.4,259.4,336.7,259.1,338.4,261.6z"/>
<path class="st2" d="M239.2,268.2c0,1.7-2.7,3.1-3.7,3.1s-1.9-1.4-1.9-3.1c0-1.7,0.8-3.1,1.9-3.1S239.2,266.5,239.2,268.2z"/>
<path class="st2" d="M271.3,258.4c0,1.7-2.7,3.1-3.7,3.1c-1,0-1.9-1.4-1.9-3.1c0-1.7,0.8-3.1,1.9-3.1
	C268.6,255.3,271.3,256.7,271.3,258.4z"/>
<path class="st2" d="M242,218.7c0,1.7-2.7,3.1-3.7,3.1c-1,0-1.9-1.4-1.9-3.1c0-1.7,0.8-3.1,1.9-3.1C239.3,215.6,242,217,242,218.7z"
	/>
<path class="st2" d="M279.5,209.4c0,1.7-2.7,3.1-3.7,3.1c-1,0-1.9-1.4-1.9-3.1c0-1.7,0.8-3.1,1.9-3.1
	C276.8,206.3,279.5,207.7,279.5,209.4z"/>
<path class="st2" d="M262.7,165.9c0,1.7-2.7,3.1-3.7,3.1s-1.9-1.4-1.9-3.1c0-1.7,0.8-3.1,1.9-3.1S262.7,164.2,262.7,165.9z"/>
<path class="st2" d="M265.5,235.2c0,1.7-2.7,3.1-3.7,3.1c-1,0-1.9-1.4-1.9-3.1c0-1.7,0.8-3.1,1.9-3.1
	C262.8,232.1,265.5,233.5,265.5,235.2z"/>
<path class="st2" d="M335.5,238.3c0,1.7-2.7,3.1-3.7,3.1c-1,0-1.9-1.4-1.9-3.1c0-1.7,0.8-3.1,1.9-3.1
	C332.8,235.2,335.5,236.6,335.5,238.3z"/>
<path class="st2" d="M219.6,188.8c-2.6,7.1,1.9,16.9-4.8,17.5c-2.6,0.2-1.3-7-4.8-13.7c-2.6-5.1-1.6-14.7,1-14.7
	C213.7,177.8,222,182.1,219.6,188.8z"/>
<path class="st2" d="M282.1,192.8c0-7.6-7.6-15.2-1.6-18c2.4-1.1,3.6,6.1,9.2,11.2c4.2,3.9,6.6,13.3,4.1,14.2
	C291.4,201.1,282.1,199.9,282.1,192.8z"/>
<path class="st2" d="M324.6,197.4c-4.6-6-15.2-7.6-12.1-13.5c1.2-2.3,6.6,2.7,14.1,3.4c5.7,0.6,13.3,6.6,11.8,8.8
	C337.1,198.4,328.9,203.1,324.6,197.4z"/>
<path class="st2" d="M185.1,196.7c-7.6-0.3-15.5,7-18.1,0.8c-1-2.4,6.2-3.4,11.6-8.7c4.1-4,13.5-6.1,14.3-3.5
	C193.8,187.7,192.3,197,185.1,196.7z"/>
<path class="st2" d="M237.6,161.5c2.7-1.4,8.4,1.8,7.8,6c-0.7,4.7,2.7,7.8,0,9.2s-2.9-3.2-5-7.4S234.9,162.9,237.6,161.5z"/>
<path class="st2" d="M146.9,234.4c-4.5,2.7,2.4,9.5,5.5,9.5s6.6-3.4,6.6-8.7c0-5.2-3.6-10.3-6.6-10.3S154.2,230.1,146.9,234.4z"/>
<path class="st2" d="M147.5,202.1c0,5.7,1.8,10.4,3.9,10.4c2.2,0,1-5.5,3.9-10.4c3.1-5.1-1.9-7.9-4-7.9
	C149.1,194.3,147.5,196.4,147.5,202.1z"/>
<path class="st2" d="M210.5,122.1c-2-5.8-3.2-2.7-9.5-2.7s-12.2,0.8-11.4,3.3c3.6,12.3,5.1,3.3,11.4,3.3S211.1,123.8,210.5,122.1z"
	/>
<path class="st2" d="M276.7,127c0,3.2-2.1,3.6-7.5,3.6c-5.4,0-12.6-6.2-12.6-9.4c0-3.2,4.9,0,10.3,0
	C272.3,121.1,276.7,123.7,276.7,127z"/>
<path class="st2" d="M312.7,123.8c0,2.1-4.1,2.8-10,2.8s-7.8-4.7-7.8-6.9s5-2,10.6-0.4C311.7,121.1,312.7,121.7,312.7,123.8z"/>
<path class="st2" d="M234,130.1c0,4.8-6.8,5.3-11,5.3s-6.3-2.5-6.3-4.8c0-5.7,7.3-8.2,9.7-4.7C229.2,130.1,234,127.8,234,130.1z"/>
<path class="st2" d="M302.7,137.4c0,2.9-4.4,3.3-9.9,3.3s-6.3-0.6-8.3-5.3c-1.2-2.7,2.8-2.7,8.2-2.7S302.7,134.4,302.7,137.4z"/>
<path class="st2" d="M259.9,147.2c0,3.6-4.6,2.9-10.4,2.9s-10.4,0.7-10.4-2.9c0-3.6,5.1-4.5,10.8-4.5S259.9,143.6,259.9,147.2z"/>
<path class="st2" d="M359.3,202.2c0,5.3,0.2,8.9-3.5,8.9c-3.7,0-5.5-1.6-5.5-7s-2.5-10.1,1.2-10.1S359.3,196.9,359.3,202.2z"/>
<path class="st2" d="M242,238c0-2-3.6-3.7-8-3.7c-4.4,0-8.6,8.1-8.6,10.1c0,2,4.2-2.8,8.6-2.8C238.4,241.7,242,240.1,242,238z"/>
<circle class="st2" cx="247.7" cy="197.5" r="5.8"/>
<circle class="st2" cx="223.1" cy="165.1" r="3.9"/>
<path class="st2" d="M347.8,175.2c0,3.4,2.6,7.3-0.8,7.3c-3.4,0-8.3-2.8-8.3-6.2c0-3.4-2.4-4,1-4S347.8,171.8,347.8,175.2z"/>
<path class="st3" d="M317.3,212.9c1.2,3-1.1,8.7-6.8,10.9c-5.7,2.2-12.6,0.1-13.8-2.9c-1.2-3,2.5-7.2,8.2-9.4
	S316.1,209.9,317.3,212.9z"/>
<path class="st2" d="M287.8,224c0.8-2.9,2.8-7.8,7.5-11.5c4.7-3.7,9.8-4.3,14.7-4.9c5.5-0.7,9.5,0,10.7,0.2c3.1,0.6,5.7,1.5,7.5,2.3
	"/>
<path class="st3" d="M190.9,212.5c-1.1,3,1.1,8.7,6.5,10.9c5.4,2.2,12.1,0.1,13.2-2.9c1.1-3-2.4-7.2-7.8-9.4
	C197.4,208.9,192.1,209.5,190.9,212.5z"/>
<path class="st2" d="M219.2,223.7c-0.8-2.9-2.7-7.8-7.2-11.5c-4.5-3.7-9.4-4.3-14.1-4.9c-5.2-0.7-9.1,0-10.2,0.2
	c-3,0.6-5.4,1.5-7.2,2.3"/>
</svg>
